HIERARCHY
ROOT Root
{
  OFFSET 0.0 0.0 0.0
  CHANNELS 6 Xposition Yposition Zposition Zrotation Yrotation Xrotation
  JOINT Hips
  {
    OFFSET 0.0 100.0 0.0
    CHANNELS 6 Xposition Yposition Zposition Zrotation Yrotation Xrotation
    JOINT Spine1
    {
      OFFSET -0.013727 5.003763 -0.053727
      CHANNELS 3 Zrotation Yrotation Xrotation
      JOINT Spine2
      {
        OFFSET -0.0 7.125301 -0.029825
        CHANNELS 3 Zrotation Yrotation Xrotation
        JOINT Chest
        {
          OFFSET -1e-06 7.550063 -0.815971
          CHANNELS 3 Zrotation Yrotation Xrotation
          JOINT Neck1
          {
            OFFSET -0.181677 26.311295 -0.553348
            CHANNELS 3 Zrotation Yrotation Xrotation
            JOINT Neck2
            {
              OFFSET -3e-06 7.709397 2.302585
              CHANNELS 3 Zrotation Yrotation Xrotation
              JOINT Head
              {
                OFFSET -5e-06 6.128916 1.953709
                CHANNELS 3 Zrotation Yrotation Xrotation
                JOINT HeadEnd
                {
                  OFFSET 0.003598 16.065403 -1.835379
                  CHANNELS 3 Zrotation Yrotation Xrotation
                }
                JOINT Jaw
                {
                  OFFSET 0.002637 0.475592 3.094941
                  CHANNELS 3 Zrotation Yrotation Xrotation
                }
                JOINT LeftEye
                {
                  OFFSET 3.206381 5.380205 7.586883
                  CHANNELS 3 Zrotation Yrotation Xrotation
                }
                JOINT RightEye
                {
                  OFFSET -3.22244 5.361869 7.558234
                  CHANNELS 3 Zrotation Yrotation Xrotation
                }
              }
            }
          }
          JOINT LeftShoulder
          {
            OFFSET 1.621652 23.237164 5.113413
            CHANNELS 3 Zrotation Yrotation Xrotation
            JOINT LeftArm
            {
              OFFSET 14.919846 2e-06 -5.502326
              CHANNELS 3 Zrotation Yrotation Xrotation
              JOINT LeftForeArm
              {
                OFFSET 28.739307 0.0 -0.002588
                CHANNELS 3 Zrotation Yrotation Xrotation
                JOINT LeftHand
                {
                  OFFSET 27.093981 -1e-06 0.002609
                  CHANNELS 3 Zrotation Yrotation Xrotation
                  JOINT LeftHandThumb1
                  {
                    OFFSET 2.276482 -1.392045 3.191413
                    CHANNELS 3 Zrotation Yrotation Xrotation
                    JOINT LeftHandThumb2
                    {
                      OFFSET 4.012836 -1.828127 1.641654
                      CHANNELS 3 Zrotation Yrotation Xrotation
                      JOINT LeftHandThumb3
                      {
                        OFFSET 2.798515 0.0 -3e-06
                        CHANNELS 3 Zrotation Yrotation Xrotation
                        JOINT LeftHandThumbEnd
                        {
                          OFFSET 3.180793 -4e-06 4e-06
                          CHANNELS 3 Zrotation Yrotation Xrotation
                        }
                      }
                    }
                  }
                  JOINT LeftHandIndex1
                  {
                    OFFSET 3.247555 -0.531998 2.296169
                    CHANNELS 3 Zrotation Yrotation Xrotation
                    JOINT LeftHandIndex2
                    {
                      OFFSET 6.364578 0.01206 0.1786
                      CHANNELS 3 Zrotation Yrotation Xrotation
                      JOINT LeftHandIndex3
                      {
                        OFFSET 3.662364 0.0 0.0
                        CHANNELS 3 Zrotation Yrotation Xrotation
                        JOINT LeftHandIndex4
                        {
                          OFFSET 2.329242 4e-06 4e-06
                          CHANNELS 3 Zrotation Yrotation Xrotation
                          JOINT LeftHandIndexEnd
                          {
                            OFFSET 2.759615 -0.180537 -0.113024
                            CHANNELS 3 Zrotation Yrotation Xrotation
                          }
                        }
                      }
                    }
                  }
                  JOINT LeftHandMiddle1
                  {
                    OFFSET 3.163495 0.240981 1.000332
                    CHANNELS 3 Zrotation Yrotation Xrotation
                    JOINT LeftHandMiddle2
                    {
                      OFFSET 6.19078 -0.259278 -1.002548
                      CHANNELS 3 Zrotation Yrotation Xrotation
                      JOINT LeftHandMiddle3
                      {
                        OFFSET 4.35652 -4e-06 -1e-06
                        CHANNELS 3 Zrotation Yrotation Xrotation
                        JOINT LeftHandMiddle4
                        {
                          OFFSET 2.996877 -8e-06 0.0
                          CHANNELS 3 Zrotation Yrotation Xrotation
                          JOINT LeftHandMiddleEnd
                          {
                            OFFSET 2.304287 -0.294569 -0.031741
                            CHANNELS 3 Zrotation Yrotation Xrotation
                          }
                        }
                      }
                    }
                  }
                  JOINT LeftHandRing1
                  {
                    OFFSET 2.882643 -0.053652 -0.322543
                    CHANNELS 3 Zrotation Yrotation Xrotation
                    JOINT LeftHandRing2
                    {
                      OFFSET 5.854541 -0.486202 -1.373841
                      CHANNELS 3 Zrotation Yrotation Xrotation
                      JOINT LeftHandRing3
                      {
                        OFFSET 4.350578 0.0 3e-06
                        CHANNELS 3 Zrotation Yrotation Xrotation
                        JOINT LeftHandRing4
                        {
                          OFFSET 2.651321 7e-06 2e-06
                          CHANNELS 3 Zrotation Yrotation Xrotation
                          JOINT LeftHandRingEnd
                          {
                            OFFSET 1.936105 0.077687 -7.1e-05
                            CHANNELS 3 Zrotation Yrotation Xrotation
                          }
                        }
                      }
                    }
                  }
                  JOINT LeftHandPinky1
                  {
                    OFFSET 2.8655 -0.310005 -1.600378
                    CHANNELS 3 Zrotation Yrotation Xrotation
                    JOINT LeftHandPinky2
                    {
                      OFFSET 5.087849 -1.331141 -1.77123
                      CHANNELS 3 Zrotation Yrotation Xrotation
                      JOINT LeftHandPinky3
                      {
                        OFFSET 3.070974 4e-06 0.0
                        CHANNELS 3 Zrotation Yrotation Xrotation
                        JOINT LeftHandPinky4
                        {
                          OFFSET 1.549672 0.0 1e-06
                          CHANNELS 3 Zrotation Yrotation Xrotation
                          JOINT LeftHandPinkyEnd
                          {
                            OFFSET 1.944893 -0.157802 0.057219
                            CHANNELS 3 Zrotation Yrotation Xrotation
                          }
                        }
                      }
                    }
                  }
                }
              }
            }
          }
          JOINT RightShoulder
          {
            OFFSET -1.380118 23.180309 5.214158
            CHANNELS 3 Zrotation Yrotation Xrotation
            JOINT RightArm
            {
              OFFSET -15.037196 1.2e-05 -5.545604
              CHANNELS 3 Zrotation Yrotation Xrotation
              JOINT RightForeArm
              {
                OFFSET -28.736639 2e-06 -0.002597
                CHANNELS 3 Zrotation Yrotation Xrotation
                JOINT RightHand
                {
                  OFFSET -27.133619 -0.0 0.002613
                  CHANNELS 3 Zrotation Yrotation Xrotation
                  JOINT RightHandThumb1
                  {
                    OFFSET -2.274032 -1.383988 3.163127
                    CHANNELS 3 Zrotation Yrotation Xrotation
                    JOINT RightHandThumb2
                    {
                      OFFSET -4.011429 -1.827466 1.640914
                      CHANNELS 3 Zrotation Yrotation Xrotation
                      JOINT RightHandThumb3
                      {
                        OFFSET -2.794935 -4e-06 -3e-06
                        CHANNELS 3 Zrotation Yrotation Xrotation
                        JOINT RightHandThumbEnd
                        {
                          OFFSET -3.183852 4e-06 1e-06
                          CHANNELS 3 Zrotation Yrotation Xrotation
                        }
                      }
                    }
                  }
                  JOINT RightHandIndex1
                  {
                    OFFSET -3.253266 -0.520057 2.282866
                    CHANNELS 3 Zrotation Yrotation Xrotation
                    JOINT RightHandIndex2
                    {
                      OFFSET -6.341917 0.012471 0.178266
                      CHANNELS 3 Zrotation Yrotation Xrotation
                      JOINT RightHandIndex3
                      {
                        OFFSET -3.654871 -8e-06 -0.0
                        CHANNELS 3 Zrotation Yrotation Xrotation
                        JOINT RightHandIndex4
                        {
                          OFFSET -2.327586 0.0 1e-06
                          CHANNELS 3 Zrotation Yrotation Xrotation
                          JOINT RightHandIndexEnd
                          {
                            OFFSET -2.76179 -0.180656 -0.113078
                            CHANNELS 3 Zrotation Yrotation Xrotation
                          }
                        }
                      }
                    }
                  }
                  JOINT RightHandMiddle1
                  {
                    OFFSET -3.168106 0.246593 1.00103
                    CHANNELS 3 Zrotation Yrotation Xrotation
                    JOINT RightHandMiddle2
                    {
                      OFFSET -6.180828 -0.258836 -1.000895
                      CHANNELS 3 Zrotation Yrotation Xrotation
                      JOINT RightHandMiddle3
                      {
                        OFFSET -4.348901 0.0 -0.0
                        CHANNELS 3 Zrotation Yrotation Xrotation
                        JOINT RightHandMiddle4
                        {
                          OFFSET -3.00024 -4e-06 -2e-06
                          CHANNELS 3 Zrotation Yrotation Xrotation
                          JOINT RightHandMiddleEnd
                          {
                            OFFSET -2.30252 -0.29437 -0.031706
                            CHANNELS 3 Zrotation Yrotation Xrotation
                          }
                        }
                      }
                    }
                  }
                  JOINT RightHandRing1
                  {
                    OFFSET -2.88569 -0.067952 -0.308858
                    CHANNELS 3 Zrotation Yrotation Xrotation
                    JOINT RightHandRing2
                    {
                      OFFSET -5.854198 -0.48613 -1.373731
                      CHANNELS 3 Zrotation Yrotation Xrotation
                      JOINT RightHandRing3
                      {
                        OFFSET -4.33881 -4e-06 -0.0
                        CHANNELS 3 Zrotation Yrotation Xrotation
                        JOINT RightHandRing4
                        {
                          OFFSET -2.654903 -4e-06 4e-06
                          CHANNELS 3 Zrotation Yrotation Xrotation
                          JOINT RightHandRingEnd
                          {
                            OFFSET -1.933568 0.077527 -5.2e-05
                            CHANNELS 3 Zrotation Yrotation Xrotation
                          }
                        }
                      }
                    }
                  }
                  JOINT RightHandPinky1
                  {
                    OFFSET -2.866425 -0.342796 -1.584145
                    CHANNELS 3 Zrotation Yrotation Xrotation
                    JOINT RightHandPinky2
                    {
                      OFFSET -5.091371 -1.332055 -1.772385
                      CHANNELS 3 Zrotation Yrotation Xrotation
                      JOINT RightHandPinky3
                      {
                        OFFSET -3.062664 -4e-06 1e-06
                        CHANNELS 3 Zrotation Yrotation Xrotation
                        JOINT RightHandPinky4
                        {
                          OFFSET -1.546529 4e-06 -2e-06
                          CHANNELS 3 Zrotation Yrotation Xrotation
                          JOINT RightHandPinkyEnd
                          {
                            OFFSET -1.945119 -0.157718 0.057211
                            CHANNELS 3 Zrotation Yrotation Xrotation
                          }
                        }
                      }
                    }
                  }
                }
              }
            }
          }
        }
      }
    }
    JOINT LeftLeg
    {
      OFFSET 10.043214 -8.434526 2.595655
      CHANNELS 3 Zrotation Yrotation Xrotation
      JOINT LeftShin
      {
        OFFSET -1e-06 -43.221752 -0.802913
        CHANNELS 3 Zrotation Yrotation Xrotation
        JOINT LeftFoot
        {
          OFFSET 1e-06 -42.155094 -3.481523
          CHANNELS 3 Zrotation Yrotation Xrotation
          JOINT LeftToeBase
          {
            OFFSET 0.0 -5.059472 13.231529
            CHANNELS 3 Zrotation Yrotation Xrotation
            JOINT LeftToeEnd
            {
              OFFSET -0.009607 -1.647619 6.513017
              CHANNELS 3 Zrotation Yrotation Xrotation
            }
          }
        }
      }
    }
    JOINT RightLeg
    {
      OFFSET -10.047278 -8.29526 2.620317
      CHANNELS 3 Zrotation Yrotation Xrotation
      JOINT RightShin
      {
        OFFSET 1e-06 -43.362206 -0.805556
        CHANNELS 3 Zrotation Yrotation Xrotation
        JOINT RightFoot
        {
          OFFSET 2e-06 -42.117393 -3.478398
          CHANNELS 3 Zrotation Yrotation Xrotation
          JOINT RightToeBase
          {
            OFFSET -0.0 -5.079609 13.284196
            CHANNELS 3 Zrotation Yrotation Xrotation
            JOINT RightToeEnd
            {
              OFFSET 0.009532 -1.634378 6.460591
              CHANNELS 3 Zrotation Yrotation Xrotation
            }
          }
        }
      }
    }
  }
}
MOTION
Frames: 4
Frame Time: 0.03333333333333333
0.0 0.0 0.0 0.0 -0.0 0.0 7.649987 32.667477 289.92804 -7.835085 31.674061 -28.464539 -0.152304 1.219581 23.541334 -1.103335 1.231962 5.70799 -5.138654 0.350411 24.635265 7.455513 0.052692 -0.522512 -3.187501 -10.867258 -2.874589 4.775443 -14.640149 -4.215755 7.7e-05 -2.3e-05 6e-06 0.059702 -0.012764 -0.212775 0.782261 -3.704197 -10.585402 -0.660228 3.625511 -10.586601 0.122212 -15.452638 16.29215 -45.532524 -24.071625 49.025188 1.246287 -20.035948 0.150766 8.814805 6.066969 0.434774 -5.882108 9.861283 0.702595 -10.936877 -0.360572 7.156208 1e-06 8.774822 2e-06 -16.567753 17.956047 6.2609 -1.844033 2.498503 -2.507279 -10.163604 4.678945 4.62111 -20.97603 -3e-06 3e-06 -21.226295 2.451698 -3.593998 1e-06 -7e-06 -0.0 -1.362682 2.240797 -0.746322 -21.334925 0.584911 3.008323 -13.82122 -3e-06 2e-06 -23.88718 -0.249078 -0.83948 -61.004322 2.299742 -1.745641 -0.294025 1.679687 0.833257 -14.218214 0.093215 1.30058 -34.212063 -0.287563 0.967171 -20.033224 0.964536 1.212843 -1e-06 0.0 -1e-06 -3.44039 0.788233 0.501657 -15.928192 -3.167308 2.999709 -6.33883 -1e-06 -0.0 -18.123457 3.648181 -4.90567 -4e-06 2e-06 -1e-06 -13.949798 23.989985 6.696162 7.521077 24.160513 -37.403782 178.556778 75.322784 -178.151871 -7.427958 9.903707 -8.630278 2.243541 -5.255037 -3.180159 14.282892 -0.826593 6.952502 -3e-06 -12.690602 0.0 14.967889 -18.041939 3.25767 1.665666 -1.955921 -2.878299 4.727799 -4.170586 4.993925 11.020527 3e-06 -3e-06 12.109053 -3.735714 -2.866787 0.0 -0.0 -0.0 1.291986 -1.928548 -1.49809 14.800129 0.567469 3.865607 14.242573 -1.341734 -6.66066 19.631968 0.143929 -0.648245 48.96336 -0.928267 -6.32142 0.353029 -1.51115 -0.03194 20.222794 3.684312 2.316629 18.787273 6e-06 -0.0 10.75163 -0.479868 1.397906 -1e-06 0.0 0.0 3.273807 0.305947 -0.580112 21.486818 11.830376 2.266133 8.162929 2e-06 0.0 18.39908 -3.798982 -4.940576 3e-06 0.0 -1e-06 -34.408764 1.697349 -92.769737 1.567663 1.064325 121.410645 25.808504 19.306187 -1.832123 1.648515 -1.684274 -3.992841 0.0 2e-06 2e-06 1.221562 -10.70145 -96.806267 1.287807 -0.477714 121.259422 -3.707119 -21.810165 5.086594 -1.536856 0.887671 -1.590039 -0.0 0.0 -1e-06 
0.0 0.0 0.0 0.0 -0.0 0.0 7.077582 38.60318 294.432709 -5.984098 33.518486 -21.169277 -0.216934 1.023323 23.407436 -0.985733 1.13985 5.562062 -5.187537 -0.182492 24.066027 7.526175 0.534179 -5.232301 -3.385685 -11.236266 -2.743325 5.644372 -16.080854 -5.420211 7.6e-05 -2.2e-05 5e-06 0.014035 0.045651 -0.195952 0.758316 -3.672227 -10.621455 -0.72901 3.717844 -10.627887 0.411265 -16.605892 15.961732 -46.158352 -26.082609 52.977413 -0.348499 -15.233023 0.390592 1.610868 6.186864 0.22855 -5.882109 9.861292 0.702592 -10.936878 -0.360575 7.156212 -0.0 8.774831 -3e-06 -16.585424 18.708836 6.888576 -1.844034 2.498507 -2.507278 -10.163607 4.678948 4.621113 -20.97604 -1e-06 6e-06 -21.226301 2.4517 -3.593999 -1e-06 -6e-06 -0.0 -1.362682 2.2408 -0.746322 -21.334927 0.58491 3.008328 -13.821221 -1e-06 4e-06 -23.887184 -0.249076 -0.839481 -61.631783 2.530599 -1.516659 -0.294025 1.679688 0.833257 -14.218218 0.093215 1.300583 -34.212074 -0.287561 0.967173 -20.033226 0.96454 1.212845 0.0 1e-06 -0.0 -3.440391 0.788234 0.501657 -15.928198 -3.167312 2.999711 -6.33883 -1e-06 1e-06 -18.123457 3.648186 -4.905673 -6e-06 1e-06 -2e-06 -13.432075 23.796381 6.62037 11.233577 23.476299 -39.08392 178.050674 70.430908 -178.826218 -5.670985 10.731841 -5.313282 2.243543 -5.255038 -3.18016 14.282894 -0.826595 6.952505 -1e-06 -12.690605 -0.0 15.087989 -17.958519 3.161346 1.665667 -1.955922 -2.8783 4.727799 -4.170588 4.993926 11.020527 2e-06 -3e-06 12.109055 -3.735716 -2.866788 1e-06 -1e-06 0.0 1.291986 -1.92855 -1.49809 14.800131 0.567467 3.865607 14.242578 -1.341737 -6.660663 19.631973 0.143926 -0.648246 48.735851 -1.215906 -6.462416 0.353029 -1.51115 -0.031941 20.222792 3.684309 2.316631 18.787273 3e-06 -2e-06 10.751628 -0.479869 1.397907 -2e-06 -0.0 1e-06 3.273807 0.305947 -0.580111 21.486816 11.830377 2.266133 8.162928 1e-06 1e-06 18.399086 -3.798987 -4.940578 3e-06 -0.0 -1e-06 -32.988934 3.235497 -90.514526 1.552614 0.998223 120.462204 23.528431 17.751266 -7.819851 1.629174 -1.634101 -4.594136 -0.0 1e-06 2e-06 2.170286 -10.373775 -96.993774 1.175293 -0.402888 122.058022 -2.369972 -23.916264 0.482512 -1.508807 1.026336 -1.518006 -0.0 0.0 -1e-06 
0.0 0.0 0.0 0.0 -0.0 0.0 6.623166 44.807934 299.025726 -4.962523 34.547619 -15.83871 -0.280483 0.861284 23.043316 -0.925511 1.056195 5.228546 -5.2507 -0.516018 23.492611 7.712763 0.864678 -7.882854 -3.644804 -11.459713 -2.668415 6.652378 -16.919968 -6.606062 7.7e-05 -2.3e-05 5e-06 -0.022534 0.083746 -0.179858 0.722337 -3.64753 -10.649133 -0.767554 3.779885 -10.66495 1.057811 -17.019806 15.69506 -46.841156 -27.284342 54.376945 -1.508449 -13.215648 0.47874 -0.968562 5.853254 0.161912 -5.882107 9.861288 0.702594 -10.936877 -0.360574 7.156212 1e-06 8.77483 -1e-06 -16.785887 19.153706 7.172744 -1.844033 2.498505 -2.507279 -10.163602 4.678946 4.621114 -20.97603 -3e-06 8e-06 -21.22629 2.4517 -3.593997 -0.0 -6e-06 -0.0 -1.362682 2.240798 -0.746324 -21.334925 0.584911 3.00833 -13.82122 -1e-06 6e-06 -23.887178 -0.249077 -0.83948 -61.862457 2.821494 -1.448663 -0.294025 1.679688 0.833258 -14.218215 0.093214 1.300585 -34.212055 -0.287559 0.967179 -20.033222 0.964542 1.212847 -0.0 1e-06 0.0 -3.440389 0.788233 0.501656 -15.928192 -3.16731 2.999712 -6.33883 -0.0 3e-06 -18.123453 3.648185 -4.905669 -5e-06 1e-06 -1e-06 -12.166275 23.172346 7.032732 17.094521 22.573952 -40.523327 176.711151 67.122269 179.63356 -4.040771 10.153803 -1.941505 2.243542 -5.255037 -3.180157 14.282894 -0.826595 6.952506 -2e-06 -12.690603 1e-06 15.306415 -17.805851 3.061383 1.665666 -1.955922 -2.8783 4.7278 -4.170587 4.993925 11.020527 2e-06 -1e-06 12.109053 -3.735717 -2.866785 -0.0 0.0 -2e-06 1.291985 -1.928549 -1.49809 14.800129 0.567468 3.865609 14.242574 -1.341737 -6.660658 19.631969 0.143924 -0.648244 48.72068 -1.465362 -6.523088 0.353029 -1.51115 -0.031939 20.222794 3.684308 2.316633 18.787271 2e-06 1e-06 10.751629 -0.479869 1.397907 -1e-06 1e-06 -0.0 3.273807 0.305947 -0.58011 21.486816 11.830376 2.266135 8.162929 -0.0 0.0 18.399088 -3.798985 -4.940577 3e-06 0.0 -1e-06 -29.762112 5.062974 -86.228813 1.647464 0.858135 118.330559 20.832207 16.055794 -12.942061 1.636315 -1.635259 -5.583743 -0.0 0.0 2e-06 3.445573 -10.880983 -93.635574 0.96934 -0.334225 121.533516 1.601275 -23.895645 -3.487137 -1.493676 1.21093 -1.301356 -0.0 -0.0 -1e-06 
0.0 0.0 0.0 0.0 -0.0 0.0 6.340818 50.810726 303.838776 -5.391769 35.002377 -13.624028 -0.037332 0.727242 22.613266 -0.907257 0.955126 4.749438 -4.835763 -0.75233 22.97645 7.620915 0.976178 -8.788857 -3.763238 -11.65731 -2.58955 7.527477 -17.288319 -7.316765 7.7e-05 -2.3e-05 5e-06 -0.027852 0.082255 -0.162028 0.712502 -3.66446 -10.650753 -0.768447 3.803831 -10.704776 1.538342 -16.843245 16.049988 -47.659969 -27.678513 54.703568 -1.832534 -13.032328 0.44093 -1.598174 5.600476 -0.245006 -5.882109 9.861286 0.702589 -10.936877 -0.360576 7.156206 0.0 8.774827 -4e-06 -17.045597 19.211477 6.944301 -1.844032 2.498505 -2.507277 -10.163606 4.678944 4.621108 -20.976036 -4e-06 7e-06 -21.226295 2.451698 -3.593997 -0.0 -6e-06 1e-06 -1.362681 2.240798 -0.746323 -21.334925 0.584908 3.008324 -13.82122 -2e-06 4e-06 -23.88718 -0.249079 -0.839481 -61.65284 2.763925 -1.42036 -0.294025 1.679688 0.833255 -14.218214 0.093213 1.300582 -34.212063 -0.287564 0.967175 -20.033222 0.964536 1.212845 -0.0 -0.0 0.0 -3.440389 0.788233 0.501655 -15.928198 -3.167312 2.999709 -6.338828 -2e-06 2e-06 -18.123451 3.648181 -4.90567 -5e-06 -1e-06 -2e-06 -10.172137 21.97171 8.554145 23.472273 21.044355 -39.79575 176.229248 65.852379 178.606232 -2.226197 8.956068 2.206087 2.243543 -5.255035 -3.180158 14.282893 -0.826597 6.9525 -2e-06 -12.690601 3e-06 15.841805 -17.929935 2.845219 1.665666 -1.955921 -2.878299 4.727798 -4.170587 4.993925 11.020526 1e-06 -2e-06 12.109054 -3.735716 -2.866786 0.0 -0.0 0.0 1.291986 -1.928549 -1.49809 14.800129 0.567465 3.865608 14.242576 -1.341737 -6.660657 19.631969 0.143924 -0.648248 48.928055 -1.543547 -6.80409 0.353029 -1.51115 -0.03194 20.222792 3.684306 2.316627 18.787275 3e-06 -2e-06 10.751625 -0.47987 1.397904 -2e-06 0.0 0.0 3.273807 0.305946 -0.58011 21.486813 11.830368 2.26613 8.16293 -0.0 -2e-06 18.399088 -3.798985 -4.940578 2e-06 0.0 -1e-06 -24.849125 6.89019 -79.698196 1.725321 0.68602 115.585022 18.445042 14.633607 -17.233557 1.707139 -1.666812 -6.708987 -0.0 1e-06 2e-06 5.05731 -12.350147 -87.240395 0.52208 -0.288409 120.336075 7.369718 -21.692713 -5.219774 -1.519492 1.355589 -2.207214 0.0 0.0 -1e-06 
